<?xml version="1.0" encoding="UTF-8" standalone="no"?>
<!DOCTYPE svg PUBLIC "-//W3C//DTD SVG 1.1//EN" "http://www.w3.org/Graphics/SVG/1.1/DTD/svg11.dtd">
<svg width="100%" height="100%" viewBox="0 0 13 12" version="1.1" xmlns="http://www.w3.org/2000/svg" xmlns:xlink="http://www.w3.org/1999/xlink" xml:space="preserve" xmlns:serif="http://www.serif.com/" style="fill-rule:evenodd;clip-rule:evenodd;stroke-linejoin:round;stroke-miterlimit:2;">
    <path d="M12.523,0L7.031,4.064L8.052,1.669L12.523,0Z" style="fill:rgb(245,132,31);fill-rule:nonzero;"/>
    <path d="M0.33,0.005L4.789,1.669L5.758,4.096L0.33,0.005ZM10.313,8.643L12.741,8.689L11.892,11.571L8.93,10.756L10.313,8.643ZM2.527,8.643L3.905,10.756L0.948,11.571L0.104,8.689L2.527,8.643Z" style="fill:rgb(245,132,31);fill-rule:nonzero;"/>
    <path d="M5.627,3.478L5.726,6.682L2.757,6.547L3.602,5.273L3.612,5.261L5.627,3.478ZM7.183,3.442L9.228,5.261L9.238,5.273L10.083,6.547L7.115,6.682L7.183,3.442ZM3.992,8.652L5.613,9.915L3.73,10.824L3.992,8.652ZM8.849,8.652L9.105,10.824L7.227,9.915L8.849,8.652Z" style="fill:rgb(245,132,31);fill-rule:nonzero;"/>
    <g id="beard">
        <path d="M7.269,9.796L9.174,10.719L7.402,11.561L7.42,11.004L7.269,9.796ZM5.571,9.797L5.425,10.995L5.437,11.56L3.661,10.719L5.571,9.797Z" style="fill:rgb(213,191,178);fill-rule:nonzero;"/>
        <path d="M3.371,10.443L5.308,11.361L5.299,10.969L5.461,10.826L7.378,10.826L7.546,10.968L7.534,11.36L9.458,10.445L8.522,11.219L7.389,11.997L5.446,11.997L4.314,11.216L3.371,10.443Z" style="fill:rgb(213,191,178);fill-rule:nonzero;"/>
    </g>
    <path id="eyes" d="M5.02,7.1L5.518,8.146L3.823,7.65L5.02,7.1ZM7.82,7.1L9.023,7.65L7.322,8.146L7.82,7.1Z" style="fill:rgb(35,52,71);fill-rule:nonzero;"/>
    <path d="M4.121,8.642L3.847,10.894L2.379,8.691L4.121,8.642ZM8.719,8.642L10.462,8.691L8.987,10.894L8.719,8.642ZM10.126,6.419L8.857,7.712L7.88,7.265L7.411,8.249L7.104,6.557L10.126,6.419ZM2.714,6.419L5.736,6.557L5.429,8.249L4.96,7.265L3.988,7.712L2.714,6.419Z" style="fill:rgb(245,132,31);fill-rule:nonzero;"/>
    <path d="M2.628,6.154L4.063,7.61L4.113,9.048L2.628,6.154ZM10.213,6.151L8.726,9.05L8.782,7.61L10.213,6.151ZM5.665,6.243L5.723,6.606L5.866,7.512L5.774,10.293L5.34,8.059L5.34,8.036L5.665,6.243ZM7.174,6.238L7.5,8.036L7.5,8.059L7.065,10.299L7.048,9.738L6.98,7.495L7.174,6.238Z" style="fill:rgb(245,132,31);fill-rule:nonzero;"/>
    <path d="M8.909,7.552L8.861,8.801L7.347,9.981L7.041,9.764L7.384,7.998L8.909,7.552ZM3.936,7.552L5.456,7.998L5.799,9.764L5.493,9.981L3.979,8.801L3.936,7.552Z" style="fill:rgb(245,132,31);fill-rule:nonzero;"/>
    <path id="nose" d="M7.13,9.674L7.404,9.867L7.564,11.148L7.332,10.952L5.508,10.952L5.281,11.152L5.436,9.868L5.71,9.674L7.13,9.674Z" style="fill:rgb(22,22,22);fill-rule:nonzero;"/>
    <path d="M12.161,0.113L12.82,2.09L12.408,4.09L12.701,4.316L12.305,4.619L12.603,4.849L12.208,5.209L12.45,5.384L11.807,6.136L9.169,5.368L9.146,5.355L7.244,3.751L12.161,0.113ZM0.679,0.113L5.596,3.751L3.694,5.355L3.671,5.368L1.033,6.136L0.39,5.384L0.632,5.209L0.237,4.849L0.535,4.619L0.132,4.316L0.436,4.089L0.02,2.09L0.679,0.113Z" style="fill:rgb(245,132,31);fill-rule:nonzero;"/>
    <g transform="matrix(0.955476,0,0,0.955476,0.285795,0.273189)">
        <path d="M12.161,0.113L12.82,2.09L12.408,4.09L12.701,4.316L12.305,4.619L12.603,4.849L12.208,5.209L12.45,5.384L11.807,6.136L9.169,5.368L9.146,5.355L7.244,3.751L12.161,0.113ZM0.679,0.113L5.596,3.751L3.694,5.355L3.671,5.368L1.033,6.136L0.39,5.384L0.632,5.209L0.237,4.849L0.535,4.619L0.132,4.316L0.436,4.089L0.02,2.09L0.679,0.113Z" style="fill:rgb(242,242,242);fill-rule:nonzero;"/>
    </g>
    <path d="M9.04,5.2L11.835,6.013L12.744,8.813L10.347,8.813L8.696,8.834L9.897,6.493L9.04,5.2ZM3.8,5.2L2.943,6.493L4.144,8.834L2.493,8.813L0.102,8.813L1.005,6.014L3.8,5.2ZM8.189,1.656L7.407,3.768L7.241,6.621L7.178,7.515L7.173,9.799L5.667,9.799L5.662,7.519L5.599,6.62L5.433,3.768L4.651,1.656L8.189,1.656Z" style="fill:rgb(245,132,31);fill-rule:nonzero;"/>
</svg>
