<?xml version="1.0" encoding="UTF-8" standalone="no"?>
<!DOCTYPE svg PUBLIC "-//W3C//DTD SVG 1.1//EN" "http://www.w3.org/Graphics/SVG/1.1/DTD/svg11.dtd">
<svg width="100%" height="100%" viewBox="0 0 100 101" version="1.1" xmlns="http://www.w3.org/2000/svg" xmlns:xlink="http://www.w3.org/1999/xlink" xml:space="preserve" xmlns:serif="http://www.serif.com/" style="fill-rule:evenodd;clip-rule:evenodd;stroke-linejoin:round;stroke-miterlimit:2;">
    <g transform="matrix(1,0,0,1,0,-9.65752)">
        <g>
            <path id="star-base" d="M43.835,9.658L65.754,37.739L100,37.739L80.136,66.507L91.096,99.383L57.535,89.109L28.766,110.342L28.766,74.727L0,54.178L33.561,43.219L43.835,9.658Z" style="fill:white;fill-rule:nonzero;"/>
            <path d="M44.896,15.379L63.636,39.397L64.442,40.431L94.881,40.431L77.926,64.989L77.158,66.093L86.894,95.298L58.306,86.549L57.013,86.154L55.925,86.958L31.452,105.014L31.452,73.343L30.328,72.539L5.886,55.08L34.396,45.77L35.721,45.337L36.13,43.994L44.896,15.379M43.835,9.658L33.561,43.219L0,54.17L28.766,74.719L28.766,110.342L57.535,89.109L91.096,99.383L80.136,66.507L100,37.739L65.754,37.739L43.835,9.658Z" style="fill-rule:nonzero;"/>
            <path d="M47.247,27.95L60.954,45.099L61.746,46.091L63.016,46.108L83.505,46.377L71.506,64.22L70.781,65.298L71.182,66.526L77.477,86.252L56.817,80.21L55.558,79.842L54.493,80.609L37.109,93.109L36.838,71.319L36.821,69.976L35.741,69.184L18.711,56.693L39.123,49.757L40.403,49.322L40.815,48.034L47.247,27.95M46.216,22.359L38.258,47.205L12.968,55.814L34.156,71.356L34.488,98.299L56.063,82.789L81.568,90.241L73.738,65.701L88.511,43.746L63.053,43.426L46.216,22.361L46.216,22.359Z" style="fill-rule:nonzero;"/>
            <path d="M49.574,40.412L58.29,50.828L59.058,51.741L60.248,51.789L72.235,52.269L65.077,63.47L64.421,64.496L64.76,65.665L68.137,77.298L55.282,73.877L54.106,73.549L53.091,74.239L42.73,81.296L42.241,67.866L42.195,66.609L41.199,65.841L31.42,58.295L43.891,53.714L45.081,53.276L45.499,52.079L49.582,40.41M48.607,35.06L42.962,51.192L25.944,57.449L39.543,67.984L40.209,86.267L54.599,76.482L72.045,81.127L67.345,64.915L77.022,49.771L60.359,49.105L48.599,35.062L48.607,35.06Z" style="fill-rule:nonzero;"/>
            <path d="M51.792,52.518L55.702,56.636L56.362,57.33L57.322,57.451L61.272,57.952L58.586,62.821L58.112,63.681L58.304,64.64L59.091,68.572L53.638,67.509L52.663,67.317L51.8,67.806L48.177,69.859L47.602,64.324L47.496,63.309L46.746,62.612L43.745,59.869L48.753,57.633L49.689,57.215L50.109,56.281L51.798,52.518M50.988,47.764L47.659,55.179L38.912,59.084L44.939,64.602L45.936,74.218L53.127,70.147L62.515,71.979L60.94,64.113L65.526,55.78L57.659,54.782L50.992,47.762L50.988,47.764Z" style="fill-rule:nonzero;"/>
        </g>
    </g>
</svg>
